<svg width="24" height="24" viewBox="0 0 24 24" fill="none" xmlns="http://www.w3.org/2000/svg">
<path d="M7.21255 12.4984L14.85 19.8099C14.9774 19.9319 15.1467 20 15.3228 20C15.4988 20 15.6681 19.9319 15.7956 19.8099L15.8038 19.8016C15.8658 19.7424 15.9151 19.6712 15.9489 19.5923C15.9826 19.5133 16 19.4283 16 19.3424C16 19.2565 15.9826 19.1715 15.9489 19.0925C15.9151 19.0136 15.8658 18.9424 15.8038 18.8832L8.61176 11.9986L15.8038 5.11681C15.8658 5.05764 15.9151 4.98641 15.9489 4.90747C15.9826 4.82853 16 4.74352 16 4.65761C16 4.5717 15.9826 4.48669 15.9489 4.40774C15.9151 4.3288 15.8658 4.25758 15.8038 4.19841L15.7956 4.19015C15.6681 4.06809 15.4988 4 15.3228 4C15.1467 4 14.9774 4.06809 14.85 4.19015L7.21255 11.5016C7.14539 11.5659 7.09191 11.6432 7.05538 11.7289C7.01884 11.8145 7 11.9068 7 12C7 12.0932 7.01884 12.1855 7.05538 12.2711C7.09191 12.3568 7.14539 12.4341 7.21255 12.4984Z" fill="#F9F9F9"/>
</svg>
