<svg width="24" height="24" viewBox="0 0 24 24" fill="none" xmlns="http://www.w3.org/2000/svg">
<path d="M16.7874 12.4984L9.15003 19.8099C9.0226 19.9319 8.85329 20 8.67723 20C8.50117 20 8.33187 19.9319 8.20444 19.8099L8.19621 19.8016C8.13422 19.7424 8.08486 19.6712 8.05113 19.5923C8.0174 19.5133 8 19.4283 8 19.3424C8 19.2565 8.0174 19.1715 8.05113 19.0925C8.08486 19.0136 8.13422 18.9424 8.19621 18.8832L15.3882 11.9986L8.19621 5.11681C8.13422 5.05764 8.08486 4.98641 8.05113 4.90747C8.0174 4.82853 8 4.74352 8 4.65761C8 4.5717 8.0174 4.48669 8.05113 4.40774C8.08486 4.3288 8.13422 4.25758 8.19621 4.19841L8.20444 4.19015C8.33187 4.06809 8.50117 4 8.67723 4C8.85329 4 9.0226 4.06809 9.15003 4.19015L16.7874 11.5016C16.8546 11.5659 16.9081 11.6432 16.9446 11.7289C16.9812 11.8145 17 11.9068 17 12C17 12.0932 16.9812 12.1855 16.9446 12.2711C16.9081 12.3568 16.8546 12.4341 16.7874 12.4984Z" fill="#F9F9F9"/>
</svg>
