<svg xmlns="http://www.w3.org/2000/svg" width="20" height="20" fill="none">
  <path fill="#17120a" d="M3.333 8.142V4.167h.834v2.695a6.65 6.65 0 0 1 2.376-2.555Q8.085 3.332 10 3.333q2.283 0 4.04 1.356 1.76 1.356 2.354 3.452h-.883a5.73 5.73 0 0 0-2.072-2.865Q11.95 4.166 10 4.166q-1.684 0-3.033.87a5.64 5.64 0 0 0-2.043 2.272h2.384v.834zm2.917 6.441h7.628l-2.355-3.141-2.18 2.756-1.458-1.762zM4.68 17.5q-.56 0-.953-.393a1.3 1.3 0 0 1-.394-.953v-5.642h.834v5.642q0 .224.144.368a.5.5 0 0 0 .369.145h10.64q.225 0 .37-.145a.5.5 0 0 0 .143-.368v-5.642h.834v5.642q0 .558-.394.953-.394.393-.952.393z"/>
</svg>
