<svg width="24" height="24" viewBox="0 0 24 24" fill="none" xmlns="http://www.w3.org/2000/svg">
<path fill-rule="evenodd" clip-rule="evenodd" d="M17.4513 5.41773C17.65 5.41156 17.843 5.4845 17.9879 5.62051C18.1328 5.75653 18.2178 5.94451 18.2242 6.14315L18.4929 14.6242C18.4997 14.7247 18.4861 14.8255 18.453 14.9206C18.42 15.0158 18.3681 15.1033 18.3004 15.1779C18.2328 15.2525 18.1509 15.3128 18.0594 15.3551C17.968 15.3974 17.869 15.4208 17.7684 15.424C17.6677 15.4272 17.5674 15.4101 17.4735 15.3736C17.3796 15.3372 17.294 15.2823 17.2218 15.2121C17.1496 15.1419 17.0922 15.0578 17.0532 14.965C17.0142 14.8721 16.9943 14.7724 16.9946 14.6717L16.7832 7.99991L7.07217 18.3465C6.93604 18.4915 6.74788 18.5765 6.54906 18.5828C6.35025 18.5891 6.15708 18.5162 6.01204 18.3801C5.86701 18.2439 5.78199 18.0558 5.77569 17.857C5.76939 17.6581 5.84233 17.465 5.97846 17.3199L15.6895 6.97337L9.01778 7.18476C8.91729 7.19149 8.81647 7.17792 8.72133 7.14485C8.6262 7.11178 8.5387 7.05989 8.46406 6.99226C8.38941 6.92464 8.32916 6.84268 8.28688 6.75126C8.2446 6.65985 8.22117 6.56085 8.21798 6.46019C8.21479 6.35952 8.23191 6.25924 8.26831 6.16533C8.30472 6.07142 8.35967 5.98581 8.42988 5.9136C8.50009 5.84139 8.58413 5.78406 8.67698 5.74503C8.76983 5.706 8.86959 5.68608 8.97031 5.68644L17.4513 5.41773Z" fill="#17120A"/>
</svg>
