<svg xmlns="http://www.w3.org/2000/svg" width="20" height="20" fill="none">
  <path fill="#17120a" d="M10 13.942q1.305 0 2.207-.901.902-.9.902-2.208 0-1.306-.902-2.207-.9-.9-2.207-.902-1.305 0-2.207.902t-.902 2.207.902 2.208 2.207.901m0-.833q-.97 0-1.623-.652-.653-.653-.653-1.624 0-.97.653-1.623.652-.653 1.623-.653.97 0 1.623.653.653.652.653 1.623t-.653 1.624-1.623.652m-6.153 3.558q-.576 0-.961-.385a1.3 1.3 0 0 1-.386-.962V6.347q0-.577.386-.961Q3.27 5 3.846 5H6.31l1.542-1.667h4.295L13.689 5h2.465q.576 0 .96.386.385.386.386.96v8.975q0 .574-.386.96a1.3 1.3 0 0 1-.96.386zm0-.834h12.307q.224 0 .369-.144a.5.5 0 0 0 .144-.368V6.346a.5.5 0 0 0-.145-.369.5.5 0 0 0-.368-.144h-2.83l-1.537-1.666H8.213L6.677 5.833H3.846a.5.5 0 0 0-.369.144.5.5 0 0 0-.144.37v8.974q0 .225.144.368a.5.5 0 0 0 .37.144"/>
</svg>
