<svg xmlns="http://www.w3.org/2000/svg" width="20" height="20" fill="none">
  <path fill="#17120a" d="M7.5 16.667q-1.735 0-2.952-1.215-1.215-1.216-1.215-2.952v-5q0-1.735 1.215-2.952Q5.764 3.333 7.5 3.333h5q1.736 0 2.952 1.215T16.667 7.5v5q0 1.735-1.215 2.952-1.216 1.215-2.952 1.215zm1.667-3.91 4.423-4.424-.59-.59-3.833 3.834-1.834-1.834-.59.59zM7.5 15.833h5a3.2 3.2 0 0 0 2.354-.979 3.2 3.2 0 0 0 .98-2.354v-5a3.2 3.2 0 0 0-.98-2.354 3.2 3.2 0 0 0-2.354-.98h-5a3.2 3.2 0 0 0-2.354.98 3.2 3.2 0 0 0-.98 2.354v5q0 1.375.98 2.354a3.2 3.2 0 0 0 2.354.98"/>
</svg>
