<svg width="40" height="40" viewBox="0 0 40 40" fill="none" xmlns="http://www.w3.org/2000/svg">
<path fill-rule="evenodd" clip-rule="evenodd" d="M8.38942 8.38942C8.63908 8.14006 8.97752 8 9.33038 8C9.68324 8 10.0217 8.14006 10.2713 8.38942L31.5762 29.6943C31.707 29.8162 31.812 29.9632 31.8847 30.1265C31.9575 30.2898 31.9966 30.4662 31.9998 30.645C32.0029 30.8237 31.9701 31.0013 31.9031 31.1671C31.8361 31.3329 31.7364 31.4836 31.61 31.61C31.4836 31.7364 31.3329 31.8361 31.1671 31.9031C31.0013 31.9701 30.8237 32.0029 30.645 31.9998C30.4662 31.9966 30.2898 31.9575 30.1265 31.8847C29.9632 31.812 29.8162 31.707 29.6943 31.5762L8.38942 10.2713C8.14006 10.0217 8 9.68324 8 9.33038C8 8.97752 8.14006 8.63908 8.38942 8.38942Z" fill="#FFFDF8"/>
<path fill-rule="evenodd" clip-rule="evenodd" d="M31.5764 8.38942C31.8257 8.63908 31.9658 8.97752 31.9658 9.33038C31.9658 9.68324 31.8257 10.0217 31.5764 10.2713L10.2715 31.5762C10.0191 31.8114 9.68525 31.9395 9.34029 31.9334C8.99533 31.9273 8.66619 31.7875 8.42223 31.5436C8.17827 31.2996 8.03852 30.9705 8.03243 30.6255C8.02635 30.2805 8.15439 29.9467 8.3896 29.6943L29.6945 8.38942C29.9441 8.14006 30.2826 8 30.6354 8C30.9883 8 31.3267 8.14006 31.5764 8.38942Z" fill="#FFFDF8"/>
</svg>
