<svg xmlns="http://www.w3.org/2000/svg" width="20" height="20" fill="none">
  <path fill="#17120a" d="m15.48 11.01.59-.59a6.3 6.3 0 0 1-1.342-1.97 5.8 5.8 0 0 1-.476-2.323q0-1.223.476-2.325a6.3 6.3 0 0 1 1.342-1.967l-.59-.6a7.1 7.1 0 0 0-1.522 2.242q-.54 1.26-.54 2.648t.54 2.645 1.523 2.24m2.687-2.696.59-.59a2.5 2.5 0 0 1-.505-.73 2.1 2.1 0 0 1-.186-.87q0-.455.187-.868.186-.415.504-.73l-.59-.595a3.2 3.2 0 0 0-.69 1.01q-.244.566-.244 1.179t.244 1.187.69 1.007M8.093 10a2.4 2.4 0 0 1-1.766-.734A2.4 2.4 0 0 1 5.594 7.5a2.42 2.42 0 0 1 .734-1.766A2.4 2.4 0 0 1 8.094 5q1.036 0 1.765.734.73.735.734 1.766a2.38 2.38 0 0 1-.735 1.766A2.42 2.42 0 0 1 8.093 10M2.26 16.025v-1.371q0-.575.29-.995a2 2 0 0 1 .818-.668q1.016-.494 2.252-.813a9.9 9.9 0 0 1 2.473-.319q1.236 0 2.473.32 1.236.318 2.252.812a2 2 0 0 1 .819.668q.29.42.29.995v1.372zm.833-.833h10v-.539a.8.8 0 0 0-.195-.56 1.7 1.7 0 0 0-.478-.371q-.781-.408-1.96-.719a9.2 9.2 0 0 0-2.367-.31q-1.19 0-2.368.31t-1.958.719q-.285.151-.48.371a.81.81 0 0 0-.194.561zm5-6.025q.688 0 1.177-.49.49-.489.49-1.177t-.49-1.177a1.62 1.62 0 0 0-1.177-.49 1.6 1.6 0 0 0-1.177.49q-.492.492-.49 1.177t.49 1.177 1.177.49"/>
</svg>
