<svg xmlns="http://www.w3.org/2000/svg" width="20" height="20" fill="none">
  <path fill="#17120a" d="M7.628 11.41h7.244l-2.299-3.044-2.044 2.564-1.324-1.57z"/>
  <path fill="#17120a" fill-rule="evenodd" d="M5.802 13.782q.385.385.961.385h8.974q.577-.001.961-.386.385-.386.385-.96V3.846a1.3 1.3 0 0 0-.385-.961 1.3 1.3 0 0 0-.96-.385H6.763q-.575 0-.96.385a1.3 1.3 0 0 0-.386.96v8.976q0 .576.385.96m10.288-.609a.5.5 0 0 1-.352.16H6.763a.49.49 0 0 1-.353-.16.5.5 0 0 1-.16-.352V3.846q0-.193.16-.353a.5.5 0 0 1 .353-.16h8.974q.193 0 .353.16.16.162.16.353v8.975a.49.49 0 0 1-.16.352M3.302 16.282q.386.384.96.385h9.809v-.834H4.262a.49.49 0 0 1-.352-.16.5.5 0 0 1-.16-.352V5.513h-.833v9.808q-.001.576.385.96" clip-rule="evenodd"/>
</svg>
