<svg xmlns="http://www.w3.org/2000/svg" width="20" height="20" fill="none">
  <path fill="#17120a" d="M9.992 12.233q-.741 0-1.247-.5A1.67 1.67 0 0 1 8.24 10.5q0-.734.505-1.234.506-.5 1.247-.5t1.246.5.506 1.234-.506 1.233-1.246.5M4.416 15q-.588 0-1.003-.41A1.34 1.34 0 0 1 3 13.6V7.4q0-.582.413-.991.415-.41 1.003-.409h11.17q.585 0 1 .409.414.41.414.991v6.2q0 .58-.413.99-.414.41-1.003.41zm.876-.867h9.417q0-.581.414-.991t1.001-.408V8.267a1.37 1.37 0 0 1-1.001-.41 1.34 1.34 0 0 1-.414-.99H5.292q0 .581-.414.99a1.37 1.37 0 0 1-1.002.41v4.466q.59 0 1.002.409.414.41.414.991"/>
</svg>
