<svg xmlns="http://www.w3.org/2000/svg" width="20" height="20" fill="none">
  <path fill="#17120a" d="M7.372 13.975q-.576 0-.961-.386a1.3 1.3 0 0 1-.385-.96V3.846q0-.576.385-.962a1.3 1.3 0 0 1 .96-.385h5.009q-.102.204-.143.403a7 7 0 0 0-.074.43H7.372a.5.5 0 0 0-.369.144.5.5 0 0 0-.144.369v8.629q0 .21.136.36a.44.44 0 0 0 .345.153 6.4 6.4 0 0 1 2.03-1.402 5.95 5.95 0 0 1 2.393-.495 5.9 5.9 0 0 1 2.39.496q1.136.495 2.033 1.4a.42.42 0 0 0 .345-.151.56.56 0 0 0 .136-.361V7.757a2 2 0 0 0 .43-.081q.2-.065.403-.152v5.104q0 .576-.385.961a1.3 1.3 0 0 1-.96.385zm-2.24 3.648a1.31 1.31 0 0 1-.995-.269 1.3 1.3 0 0 1-.507-.896L2.597 8.363q-.073-.558.276-1.012t.909-.505l.577-.061v.837l-.449.052a.53.53 0 0 0-.353.193.49.49 0 0 0-.095.385l.996 8.095q.033.225.192.352a.49.49 0 0 0 .385.096l9.03-1.154h1.208a.61.61 0 0 1-.19.522.95.95 0 0 1-.527.271zm6.63-5.7q-.937 0-1.798.304a4.8 4.8 0 0 0-1.56.914h6.717a4.8 4.8 0 0 0-1.561-.914 5.4 5.4 0 0 0-1.798-.304m-.004-6.442a1.97 1.97 0 0 1 1.445.591q.594.592.595 1.44a1.97 1.97 0 0 1-.592 1.445 1.95 1.95 0 0 1-1.44.595 1.98 1.98 0 0 1-1.444-.592 1.95 1.95 0 0 1-.595-1.44 1.98 1.98 0 0 1 .591-1.445 1.95 1.95 0 0 1 1.44-.594m.005.833q-.496 0-.85.354a1.16 1.16 0 0 0-.353.848q0 .495.353.848.354.354.85.353.495 0 .848-.353t.353-.848-.353-.848a1.16 1.16 0 0 0-.849-.354"/>
  <path fill="#17120a" d="M12.38 2.5q-.102.204-.143.403a7 7 0 0 0-.074.43h3.991c.479 0 .541.343.513.514v3.91a2 2 0 0 0 .43-.081q.2-.065.403-.152V3.847c-.016-.45-.307-1.347-1.346-1.347z"/>
</svg>
