<svg xmlns="http://www.w3.org/2000/svg" width="20" height="20" fill="none">
  <path fill="#17120a" d="M10 14.07q1.036 0 1.91-.48a4.1 4.1 0 0 0 1.434-1.298.43.43 0 0 0 .005-.415.36.36 0 0 0-.349-.21H7a.36.36 0 0 0-.35.21.43.43 0 0 0 .007.415q.558.82 1.441 1.3.884.48 1.902.479M7.417 7.907l.646.647a.38.38 0 0 0 .253.114.35.35 0 0 0 .269-.114.36.36 0 0 0 .12-.262.39.39 0 0 0-.12-.261l-.697-.702a.64.64 0 0 0-.472-.202.65.65 0 0 0-.475.201l-.702.703a.37.37 0 0 0-.116.253q-.007.147.12.274.114.114.254.116a.37.37 0 0 0 .265-.116zm5.166 0 .656.65a.4.4 0 0 0 .253.112.35.35 0 0 0 .27-.115.37.37 0 0 0 .123-.262.37.37 0 0 0-.123-.261l-.703-.702a.64.64 0 0 0-.471-.202.65.65 0 0 0-.475.201l-.703.702a.4.4 0 0 0-.11.254.34.34 0 0 0 .115.269q.123.123.262.124a.37.37 0 0 0 .26-.124zm-2.58 9.594a7.3 7.3 0 0 1-2.926-.59 7.6 7.6 0 0 1-2.382-1.603 7.6 7.6 0 0 1-1.604-2.38 7.3 7.3 0 0 1-.591-2.924q0-1.557.59-2.926a7.6 7.6 0 0 1 1.602-2.382 7.6 7.6 0 0 1 2.38-1.604A7.3 7.3 0 0 1 9.999 2.5q1.554 0 2.925.59a7.6 7.6 0 0 1 2.382 1.603 7.6 7.6 0 0 1 1.604 2.38 7.3 7.3 0 0 1 .591 2.925 7.3 7.3 0 0 1-.59 2.925 7.6 7.6 0 0 1-1.603 2.382 7.6 7.6 0 0 1-2.38 1.604 7.3 7.3 0 0 1-2.924.591M10 16.667q2.792 0 4.73-1.938 1.936-1.937 1.937-4.729 0-2.791-1.938-4.73Q12.792 3.335 10 3.334q-2.791 0-4.73 1.938Q3.335 7.209 3.334 10q0 2.792 1.938 4.73Q7.209 16.665 10 16.666"/>
</svg>
