<svg width="106" height="18" viewBox="0 0 106 18" fill="none" xmlns="http://www.w3.org/2000/svg">
<path d="M4.2374 13.8214L3.97406 8.33242L11.18 0.346154H16.399L9.21694 8.38187L6.58353 11.2253L4.2374 13.8214ZM0 17.6538V0.346154H4.69226V17.6538H0ZM11.2518 17.6538L5.7935 10.5082L8.88177 7.09615L16.7581 17.6538H11.2518Z" fill="black"/>
<path d="M25.8448 18C24.5042 18 23.2673 17.7775 22.1341 17.3324C21.0009 16.8874 20.0114 16.261 19.1655 15.4533C18.3356 14.6291 17.6892 13.6731 17.2264 12.5852C16.7636 11.4973 16.5321 10.3022 16.5321 9C16.5321 7.6978 16.7636 6.50275 17.2264 5.41483C17.6892 4.32692 18.3356 3.37912 19.1655 2.57143C20.0114 1.74725 21.0009 1.11264 22.1341 0.667583C23.2673 0.222528 24.5042 0 25.8448 0C27.2014 0 28.4383 0.222528 29.5555 0.667583C30.6887 1.11264 31.6702 1.74725 32.5002 2.57143C33.3301 3.37912 33.9765 4.32692 34.4393 5.41483C34.9181 6.50275 35.1575 7.6978 35.1575 9C35.1575 10.3022 34.9181 11.5055 34.4393 12.6099C33.9765 13.6978 33.3301 14.6456 32.5002 15.4533C31.6702 16.261 30.6887 16.8874 29.5555 17.3324C28.4383 17.7775 27.2014 18 25.8448 18ZM25.8448 13.9451C26.4832 13.9451 27.0738 13.8297 27.6164 13.5989C28.175 13.3681 28.6538 13.0385 29.0528 12.6099C29.4678 12.1648 29.787 11.6374 30.0104 11.0275C30.2498 10.4176 30.3695 9.74176 30.3695 9C30.3695 8.24176 30.2498 7.56593 30.0104 6.97253C29.787 6.36264 29.4678 5.84341 29.0528 5.41483C28.6538 4.96978 28.175 4.63187 27.6164 4.4011C27.0738 4.17033 26.4832 4.05495 25.8448 4.05495C25.2064 4.05495 24.6079 4.17033 24.0493 4.4011C23.5067 4.63187 23.0279 4.96978 22.6129 5.41483C22.2139 5.84341 21.8947 6.36264 21.6553 6.97253C21.4319 7.56593 21.3202 8.24176 21.3202 9C21.3202 9.74176 21.4319 10.4176 21.6553 11.0275C21.8947 11.6374 22.2139 12.1648 22.6129 12.6099C23.0279 13.0385 23.5067 13.3681 24.0493 13.5989C24.6079 13.8297 25.2064 13.9451 25.8448 13.9451Z" fill="black"/>
<path d="M37.6402 17.6538V0.346154H46.2107C48.4132 0.346154 50.0571 0.766483 51.1424 1.60714C52.2277 2.43132 52.7703 3.51923 52.7703 4.87088C52.7703 5.76099 52.5389 6.54396 52.0761 7.21978C51.6292 7.87912 50.9908 8.40659 50.1609 8.8022C49.3469 9.18132 48.3733 9.37088 47.2402 9.37088L47.719 8.18407C48.9 8.18407 49.9294 8.37363 50.8072 8.75275C51.685 9.11538 52.3633 9.6511 52.8421 10.3599C53.3369 11.0522 53.5843 11.9011 53.5843 12.9066C53.5843 14.4066 52.9938 15.5769 51.8127 16.4176C50.6476 17.2418 48.9399 17.6538 46.6895 17.6538H37.6402ZM42.3324 14.1181H46.3065C47.1205 14.1181 47.7349 13.978 48.1499 13.6978C48.5808 13.4011 48.7963 12.956 48.7963 12.3626C48.7963 11.7692 48.5808 11.3324 48.1499 11.0522C47.7349 10.7555 47.1205 10.6071 46.3065 10.6071H41.9973V7.21978H45.5883C46.3863 7.21978 46.9848 7.07967 47.3838 6.79945C47.7828 6.51923 47.9823 6.0989 47.9823 5.53846C47.9823 4.97802 47.7828 4.56593 47.3838 4.3022C46.9848 4.02198 46.3863 3.88187 45.5883 3.88187H42.3324V14.1181Z" fill="black"/>
<path d="M56.0395 17.6538V0.346154H63.7003C65.2325 0.346154 66.5492 0.601648 67.6504 1.11264C68.7676 1.62363 69.6294 2.36539 70.2359 3.33791C70.8424 4.29396 71.1457 5.43132 71.1457 6.75C71.1457 8.0522 70.8424 9.18132 70.2359 10.1374C69.6294 11.0769 68.7676 11.8022 67.6504 12.3132C66.5492 12.8077 65.2325 13.0549 63.7003 13.0549H58.6729L60.7796 11.0027V17.6538H56.0395ZM66.4055 17.6538L62.2399 11.3489H67.2913L71.4808 17.6538H66.4055ZM60.7796 11.522L58.6729 9.27198H63.413C64.4025 9.27198 65.1367 9.04945 65.6155 8.60439C66.1103 8.15934 66.3576 7.54121 66.3576 6.75C66.3576 5.94231 66.1103 5.31593 65.6155 4.87088C65.1367 4.42582 64.4025 4.2033 63.413 4.2033H58.6729L60.7796 1.9533V11.522Z" fill="black"/>
<path d="M77.7643 17.6538V10.3352L78.8656 13.2775L71.3723 0.346154H76.3758L81.7863 9.71703H78.8895L84.3239 0.346154H88.9204L81.4511 13.2775L82.5045 10.3352V17.6538H77.7643Z" fill="black"/>
<path d="M90.0559 17.6538V0.346154H93.9581L103.199 11.8681H101.356V0.346154H106V17.6538H102.098L92.8569 6.13187H94.7003V17.6538H90.0559Z" fill="black"/>
</svg>
