<svg width="80" height="40" viewBox="0 0 80 40" fill="none" xmlns="http://www.w3.org/2000/svg">
<path d="M3.19804 23.75L2.99929 19.4808L8.43775 13.2692H12.3766L6.95618 19.5192L4.9687 21.7308L3.19804 23.75ZM0 26.7308V13.2692H3.54133V26.7308H0ZM8.49196 26.7308L4.37246 21.1731L6.70323 18.5192L12.6476 26.7308H8.49196Z" fill="#F9F9F9"/>
<path d="M19.5055 27C18.4937 27 17.5602 26.8269 16.705 26.4808C15.8498 26.1346 15.103 25.6474 14.4646 25.0192C13.8382 24.3782 13.3504 23.6346 13.0011 22.7885C12.6517 21.9423 12.4771 21.0128 12.4771 20C12.4771 18.9872 12.6517 18.0577 13.0011 17.2115C13.3504 16.3654 13.8382 15.6282 14.4646 15C15.103 14.359 15.8498 13.8654 16.705 13.5192C17.5602 13.1731 18.4937 13 19.5055 13C20.5294 13 21.4629 13.1731 22.3061 13.5192C23.1613 13.8654 23.9021 14.359 24.5284 15C25.1548 15.6282 25.6426 16.3654 25.9919 17.2115C26.3533 18.0577 26.534 18.9872 26.534 20C26.534 21.0128 26.3533 21.9487 25.9919 22.8077C25.6426 23.6538 25.1548 24.391 24.5284 25.0192C23.9021 25.6474 23.1613 26.1346 22.3061 26.4808C21.4629 26.8269 20.5294 27 19.5055 27ZM19.5055 23.8462C19.9873 23.8462 20.433 23.7564 20.8426 23.5769C21.2641 23.3974 21.6255 23.141 21.9266 22.8077C22.2398 22.4615 22.4807 22.0513 22.6494 21.5769C22.83 21.1026 22.9204 20.5769 22.9204 20C22.9204 19.4103 22.83 18.8846 22.6494 18.4231C22.4807 17.9487 22.2398 17.5449 21.9266 17.2115C21.6255 16.8654 21.2641 16.6026 20.8426 16.4231C20.433 16.2436 19.9873 16.1538 19.5055 16.1538C19.0237 16.1538 18.572 16.2436 18.1504 16.4231C17.7409 16.6026 17.3795 16.8654 17.0664 17.2115C16.7652 17.5449 16.5243 17.9487 16.3436 18.4231C16.175 18.8846 16.0907 19.4103 16.0907 20C16.0907 20.5769 16.175 21.1026 16.3436 21.5769C16.5243 22.0513 16.7652 22.4615 17.0664 22.8077C17.3795 23.141 17.7409 23.3974 18.1504 23.5769C18.572 23.7564 19.0237 23.8462 19.5055 23.8462Z" fill="#F9F9F9"/>
<path d="M28.4077 26.7308V13.2692H34.876C36.5383 13.2692 37.779 13.5962 38.598 14.25C39.4171 14.891 39.8267 15.7372 39.8267 16.7885C39.8267 17.4808 39.652 18.0897 39.3027 18.6154C38.9654 19.1282 38.4836 19.5385 37.8573 19.8462C37.2429 20.141 36.5082 20.2885 35.653 20.2885L36.0143 19.3654C36.9057 19.3654 37.6826 19.5128 38.3451 19.8077C39.0076 20.0897 39.5195 20.5064 39.8809 21.0577C40.2543 21.5962 40.441 22.2564 40.441 23.0385C40.441 24.2051 39.9953 25.1154 39.1039 25.7692C38.2246 26.4103 36.9358 26.7308 35.2374 26.7308H28.4077ZM31.949 23.9808H34.9483C35.5626 23.9808 36.0264 23.8718 36.3395 23.6538C36.6648 23.4231 36.8274 23.0769 36.8274 22.6154C36.8274 22.1538 36.6648 21.8141 36.3395 21.5962C36.0264 21.3654 35.5626 21.25 34.9483 21.25H31.6961V18.6154H34.4063C35.0085 18.6154 35.4602 18.5064 35.7614 18.2885C36.0625 18.0705 36.2131 17.7436 36.2131 17.3077C36.2131 16.8718 36.0625 16.5513 35.7614 16.3462C35.4602 16.1282 35.0085 16.0192 34.4063 16.0192H31.949V23.9808Z" fill="#F9F9F9"/>
<path d="M42.2939 26.7308V13.2692H48.0757C49.232 13.2692 50.2258 13.4679 51.0569 13.8654C51.9001 14.2628 52.5505 14.8397 53.0083 15.5962C53.466 16.3397 53.6948 17.2244 53.6948 18.25C53.6948 19.2628 53.466 20.141 53.0083 20.8846C52.5505 21.6154 51.9001 22.1795 51.0569 22.5769C50.2258 22.9615 49.232 23.1538 48.0757 23.1538H44.2814L45.8714 21.5577V26.7308H42.2939ZM50.1174 26.7308L46.9735 21.8269H50.7859L53.9478 26.7308H50.1174ZM45.8714 21.9615L44.2814 20.2115H47.8589C48.6057 20.2115 49.1598 20.0385 49.5211 19.6923C49.8945 19.3462 50.0812 18.8654 50.0812 18.25C50.0812 17.6218 49.8945 17.1346 49.5211 16.7885C49.1598 16.4423 48.6057 16.2692 47.8589 16.2692H44.2814L45.8714 14.5192V21.9615Z" fill="#F9F9F9"/>
<path d="M58.6901 26.7308V21.0385L59.5212 23.3269L53.8659 13.2692H57.6421L61.7255 20.5577H59.5393L63.6407 13.2692H67.1098L61.4725 23.3269L62.2675 21.0385V26.7308H58.6901Z" fill="#F9F9F9"/>
<path d="M67.9667 26.7308V13.2692H70.9118L77.886 22.2308H76.4948V13.2692H80V26.7308H77.0549L70.0807 17.7692H71.4719V26.7308H67.9667Z" fill="#F9F9F9"/>
</svg>
